<svg id="Layer_1" data-name="Layer 1" xmlns="http://www.w3.org/2000/svg" xmlns:xlink="http://www.w3.org/1999/xlink" viewBox="0 0 315.36 77.27"><defs><style>.cls-1{fill:#292e27;}.cls-2{fill:#fff;}.cls-3,.cls-4{stroke:#264860;stroke-miterlimit:10;}.cls-3{stroke-width:3.05px;fill:url(#radial-gradient);}.cls-4{fill:none;}</style><radialGradient id="radial-gradient" cx="417.09" cy="1185.73" r="33.37" gradientTransform="translate(-153.27 -1454.51) scale(1.03 1.26)" gradientUnits="userSpaceOnUse"><stop offset="0" stop-color="#fcfff5"/><stop offset="1" stop-color="#f4f7ed"/></radialGradient></defs><title>cable</title><path class="cls-1" d="M120.34,47.61c-1.27.08-2.59,0.12-4,.12H6.9a6.9,6.9,0,1,1,0-13.8H116.34c1.5,0,2.81,0,4-.1V47.61Z"/><rect class="cls-1" x="119.76" y="11.45" width="76.91" height="58.65"/><path class="cls-1" d="M196.68,19.54h2.92a4,4,0,0,1,4,4V56.83a4,4,0,0,1-4,4h-2.92a0,0,0,0,1,0,0V19.54A0,0,0,0,1,196.68,19.54Z"/><rect class="cls-2" x="130.48" y="21.68" width="8.71" height="39.2"/><rect class="cls-2" x="153.85" y="21.68" width="4.36" height="39.2"/><rect class="cls-2" x="164.74" y="21.68" width="26.71" height="2.03"/><rect class="cls-2" x="164.74" y="54.72" width="26.71" height="2.03"/><rect class="cls-2" x="164.74" y="25.81" width="26.71" height="2.03"/><rect class="cls-2" x="164.74" y="50.59" width="26.71" height="2.03"/><rect class="cls-2" x="164.74" y="29.94" width="26.71" height="2.03"/><rect class="cls-2" x="164.74" y="46.46" width="26.71" height="2.03"/><rect class="cls-2" x="164.74" y="34.07" width="26.71" height="2.03"/><rect class="cls-2" x="164.74" y="38.2" width="26.71" height="2.03"/><rect class="cls-2" x="164.74" y="42.33" width="26.71" height="2.03"/><rect class="cls-2" x="164.74" y="58.85" width="26.71" height="2.03"/><rect class="cls-3" x="239.05" y="3.33" width="76.31" height="73.94" rx="5.75" ry="5.75"/><polygon class="cls-1" points="302.7 19.73 251.7 19.73 251.7 49.73 255.7 49.73 255.7 57.73 267.7 57.73 267.7 64.73 286.7 64.73 286.7 57.73 298.7 57.73 298.7 49.73 302.7 49.73 302.7 19.73"/><polygon class="cls-4" points="306.2 16.23 247.2 16.23 247.2 52.23 253.2 52.23 253.2 61.23 264.2 61.23 264.2 68.23 290.2 68.23 290.2 61.23 302.2 61.23 302.2 52.23 306.2 52.23 306.2 16.23"/><rect class="cls-2" x="293.9" y="25.25" width="7.19" height="2.19" transform="translate(323.85 -271.15) rotate(90)"/><rect class="cls-2" x="258.26" y="25.25" width="7.19" height="2.19" transform="translate(288.21 -235.51) rotate(90)"/><rect class="cls-2" x="289.45" y="25.25" width="7.19" height="2.19" transform="translate(319.39 -266.7) rotate(90)"/><rect class="cls-2" x="262.72" y="25.25" width="7.19" height="2.19" transform="translate(292.66 -239.97) rotate(90)"/><rect class="cls-2" x="284.99" y="25.25" width="7.19" height="2.19" transform="translate(314.94 -262.24) rotate(90)"/><rect class="cls-2" x="267.17" y="25.25" width="7.19" height="2.19" transform="translate(297.12 -244.42) rotate(90)"/><rect class="cls-2" x="280.54" y="25.25" width="7.19" height="2.19" transform="translate(310.48 -257.79) rotate(90)"/><rect class="cls-2" x="276.08" y="25.25" width="7.19" height="2.19" transform="translate(306.03 -253.33) rotate(90)"/><rect class="cls-2" x="271.63" y="25.25" width="7.19" height="2.19" transform="translate(301.57 -248.88) rotate(90)"/><rect class="cls-2" x="253.81" y="25.25" width="7.19" height="2.19" transform="translate(283.75 -231.06) rotate(90)"/></svg>