<svg id="Layer_1" data-name="Layer 1" xmlns="http://www.w3.org/2000/svg" viewBox="0 0 228.22 41.17"><defs><style>.cls-1{fill:#292e27;}</style></defs><title>logo_ZombUniCorp</title><path class="cls-1" d="M82.51,18.94L90.38,6.49H82.88V3.61h11.3V7l-7.9,12.47h8.08v2.88H82.51V18.94Z"/><path class="cls-1" d="M100.78,9c4.83,0,5.35,3.07,5.35,6.65,0,4.11-.62,7-5.35,7s-5.35-2.88-5.35-7C95.42,12.05,95.94,9,100.78,9Zm1.69,6.44c0-2.73-.13-4.11-1.69-4.11s-1.69,1.38-1.69,4.11c0,4,.34,4.86,1.69,4.86S102.47,19.43,102.47,15.43Z"/><path class="cls-1" d="M117.79,22.37h-3.59v-9c0-1.17-.21-2.08-1.38-2.08s-1.38.91-1.38,2.08v9h-3.66V9.24h3.66v1.33h0.05a3.61,3.61,0,0,1,6,.08A3.89,3.89,0,0,1,120.94,9c1.74,0,3.27,1,3.27,2.86V22.37h-3.66v-9c0-1.17-.21-2.08-1.38-2.08s-1.38.91-1.38,2.08v9Z"/><path class="cls-1" d="M126.18,3.61h3.66v6.89h0.05a3.21,3.21,0,0,1,3-1.51c3.69,0,3.59,4.08,3.59,6.73s0.13,6.91-3.66,6.91a3.12,3.12,0,0,1-3.09-1.72h-0.05v1.46h-3.48V3.61Zm6.7,12.08c0-2.62,0-4.44-1.56-4.44s-1.48,1.82-1.48,4.44c0,3.3.23,4.68,1.48,4.68S132.89,19,132.89,15.69Z"/><path class="cls-1" d="M142.55,3.61v13c0,2.31,1,3.22,2.42,3.22,1.72,0,2.5-1.14,2.5-3.22v-13h3.92v13.3c0,2.81-1.59,5.77-6.37,5.77-4.31,0-6.39-2.23-6.39-5.77V3.61h3.92Z"/><path class="cls-1" d="M157.41,10.57h0.05A3.26,3.26,0,0,1,160.55,9c1.74,0,3.27,1,3.27,2.86V22.37h-3.66v-9c0-1.17-.21-2.08-1.38-2.08s-1.38.91-1.38,2.08v9h-3.66V9.24h3.66v1.33Z"/><path class="cls-1" d="M166.4,3.61h3.66V6.49H166.4V3.61Zm0,5.64h3.66V22.37H166.4V9.24Z"/><path class="cls-1" d="M189.91,16.05c0,5-2,6.63-5.66,6.63-6.47,0-6.47-4.78-6.47-9.69s0-9.69,6.47-9.69c4,0,5.61,2.21,5.46,6.24h-3.85c0-2.49-.44-3.43-1.61-3.43-2.21,0-2.49,2.08-2.49,6.89s0.29,6.89,2.49,6.89c1.82,0,1.74-2.34,1.79-3.82h3.87Z"/><path class="cls-1" d="M196.61,9c4.83,0,5.35,3.07,5.35,6.65,0,4.11-.62,7-5.35,7s-5.35-2.88-5.35-7C191.26,12.05,191.78,9,196.61,9Zm1.69,6.44c0-2.73-.13-4.11-1.69-4.11s-1.69,1.38-1.69,4.11c0,4,.34,4.86,1.69,4.86S198.3,19.43,198.3,15.43Z"/><path class="cls-1" d="M207.39,9.24v1.69h0.05A3.32,3.32,0,0,1,210.85,9v3.27c-3.22-.21-3.27,1.66-3.27,3v7.15h-3.66V9.24h3.48Z"/><path class="cls-1" d="M215.39,9.24V10.7h0.05A3.12,3.12,0,0,1,218.53,9c3.79,0,3.66,4.21,3.66,6.91s0.1,6.73-3.59,6.73a3.21,3.21,0,0,1-3-1.51h-0.05V28h-3.66V9.24h3.48Zm3.22,6.44c0-2.62,0-4.44-1.56-4.44s-1.48,1.82-1.48,4.44c0,3.3.23,4.68,1.48,4.68S218.61,19,218.61,15.69Z"/><path class="cls-1" d="M224.12,18.94h3.12v3.43h-3.12V18.94Z"/><path class="cls-1" d="M84.77,37.34H84.09l-0.31,2H82.85l0.31-2h-1V36.51h1.09L83.51,35h-1V34.21h1.11L84,32.14h0.93l-0.31,2.07h0.68l0.31-2.07H86.5l-0.31,2.07h1V35H86.05l-0.23,1.48h1v0.83h-1.1l-0.31,2H84.46Zm-0.55-.83h0.68L85.12,35H84.44Z"/><path class="cls-1" d="M88.29,39.38V32.14h1.93a2.29,2.29,0,0,1,1.54.47A1.8,1.8,0,0,1,92.3,34,1.64,1.64,0,0,1,92,35a1.46,1.46,0,0,1-.75.56h0a1.44,1.44,0,0,1,.94.6A2.26,2.26,0,0,1,92,38.87a2.1,2.1,0,0,1-1.49.51H88.29Zm0.65-4h1.47A1.24,1.24,0,0,0,91.32,35a1.39,1.39,0,0,0,.32-1,1.34,1.34,0,0,0-.36-1,1.52,1.52,0,0,0-1.07-.34H88.94v2.71Zm0,0.51v3h1.58a1.33,1.33,0,0,0,1-.38,1.55,1.55,0,0,0,.36-1.1,1.69,1.69,0,0,0-.32-1.07,1.15,1.15,0,0,0-1-.41H88.94Z"/><path class="cls-1" d="M93.2,32.14h2.61v3.14h1.56a2.09,2.09,0,0,1,1.56.54,2,2,0,0,1,.54,1.49,1.89,1.89,0,0,1-2.09,2.06H95.15V32.66H93.2V32.14Zm2.61,3.66v3.06h1.56a1.33,1.33,0,0,0,1.09-.43,1.72,1.72,0,0,0,.35-1.12,1.63,1.63,0,0,0-.35-1.08,1.34,1.34,0,0,0-1.09-.42H95.81Z"/><path class="cls-1" d="M102.74,35.42a1.56,1.56,0,0,0,1.14-.36,1.41,1.41,0,0,0,.36-1,1.48,1.48,0,0,0-.38-1.07,1.54,1.54,0,0,0-1.16-.4A1.4,1.4,0,0,0,101.24,34h-0.65a1.86,1.86,0,0,1,.6-1.46A2.17,2.17,0,0,1,102.7,32a2.35,2.35,0,0,1,1.61.51,1.9,1.9,0,0,1,.58,1.5,1.67,1.67,0,0,1-.29,1,1.83,1.83,0,0,1-.83.65,1.76,1.76,0,0,1,.92.63,1.86,1.86,0,0,1,.31,1.11,1.91,1.91,0,0,1-.63,1.53,2.46,2.46,0,0,1-1.67.54,2.37,2.37,0,0,1-1.56-.53,1.93,1.93,0,0,1-.64-1.58h0.65a1.61,1.61,0,0,0,.42,1.15,1.47,1.47,0,0,0,1.12.45,1.69,1.69,0,0,0,1.21-.41,1.49,1.49,0,0,0,.43-1.13,1.44,1.44,0,0,0-.39-1.13,1.78,1.78,0,0,0-1.21-.35H102V35.42h0.73Z"/><path class="cls-1" d="M108.22,35.22l1.66-3.08h0.79l-2.06,3.57,2.12,3.67h-0.78l-1.71-3.18-1.71,3.18h-0.79l2.12-3.67-2-3.57h0.78Z"/><path class="cls-1" d="M116.39,36.78a2.86,2.86,0,0,1-.64,2,2.31,2.31,0,0,1-1.78.68,2.23,2.23,0,0,1-1.74-.69,2.91,2.91,0,0,1-.62-2v-2a2.93,2.93,0,0,1,.62-2A2.22,2.22,0,0,1,114,32a2.29,2.29,0,0,1,1.77.69,2.88,2.88,0,0,1,.64,2v2Zm-0.65-2a2.48,2.48,0,0,0-.45-1.62,1.62,1.62,0,0,0-1.31-.53,1.54,1.54,0,0,0-1.27.53,2.54,2.54,0,0,0-.43,1.62v2a2.57,2.57,0,0,0,.43,1.64,1.53,1.53,0,0,0,1.27.54,1.62,1.62,0,0,0,1.31-.53,2.5,2.5,0,0,0,.45-1.64v-2Z"/><path class="cls-1" d="M123.25,41.13H122.6V39.38h-4.68v1.75h-0.65V38.86h0.47a4.17,4.17,0,0,0,.67-1.36,10.05,10.05,0,0,0,.38-2.74l0.12-2.62h3.6v6.72h0.75v2.27Zm-3.81-6.37a11.66,11.66,0,0,1-.34,2.48,5.14,5.14,0,0,1-.69,1.62h3.43V32.67h-2.31Z"/><path class="cls-1" d="M123.69,32.14h2.61v3.14h1.56a2.09,2.09,0,0,1,1.56.54,2,2,0,0,1,.54,1.49,1.89,1.89,0,0,1-2.09,2.06h-2.22V32.66h-1.95V32.14Zm2.61,3.66v3.06h1.56a1.33,1.33,0,0,0,1.09-.43,1.72,1.72,0,0,0,.35-1.12,1.63,1.63,0,0,0-.35-1.08,1.34,1.34,0,0,0-1.09-.42h-1.56Z"/><path class="cls-1" d="M134,32.67h-2v6.71h-0.64V32.67h-2V32.14H134v0.53Z"/><path class="cls-1" d="M142.17,39.38h-0.65V36.05h-3.36v3.33H137.5V32.14h0.65v3.4h3.36v-3.4h0.65v7.24Z"/><path class="cls-1" d="M147.44,37.34h-2.73l-0.65,2h-0.67l2.41-7.24h0.59l2.38,7.24h-0.67Zm-2.56-.52h2.4l-1.19-3.72h0Z"/><path class="cls-1" d="M156.87,39.38h-0.65V32.67h-3.37v6.71H152.2V32.14h4.67v7.24Z"/><path class="cls-1" d="M159.29,36.38v3h-0.65V32.14h2.26a2,2,0,0,1,1.55.57,2.5,2.5,0,0,1,0,3.1,2,2,0,0,1-1.55.57h-1.61Zm0-.52h1.61a1.3,1.3,0,0,0,1.09-.45,1.79,1.79,0,0,0,.35-1.14,1.81,1.81,0,0,0-.35-1.15,1.3,1.3,0,0,0-1.09-.45h-1.61v3.19Z"/><path class="cls-1" d="M168.95,36.78a2.86,2.86,0,0,1-.64,2,2.31,2.31,0,0,1-1.78.68,2.23,2.23,0,0,1-1.74-.69,2.91,2.91,0,0,1-.62-2v-2a2.93,2.93,0,0,1,.62-2,2.22,2.22,0,0,1,1.74-.69,2.29,2.29,0,0,1,1.77.69,2.88,2.88,0,0,1,.64,2v2Zm-0.65-2a2.48,2.48,0,0,0-.45-1.62,1.62,1.62,0,0,0-1.31-.53,1.54,1.54,0,0,0-1.27.53,2.54,2.54,0,0,0-.43,1.62v2a2.57,2.57,0,0,0,.43,1.64,1.53,1.53,0,0,0,1.27.54,1.62,1.62,0,0,0,1.31-.53,2.5,2.5,0,0,0,.45-1.64v-2Z"/><path class="cls-1" d="M174.36,32.67h-3.17v6.71h-0.65V32.14h3.82v0.53Z"/><path class="cls-1" d="M176.25,36.38v3H175.6V32.14h2.26a2,2,0,0,1,1.55.57,2.5,2.5,0,0,1,0,3.1,2,2,0,0,1-1.55.57h-1.61Zm0-.52h1.61a1.3,1.3,0,0,0,1.09-.45,1.79,1.79,0,0,0,.35-1.14,1.81,1.81,0,0,0-.35-1.15,1.3,1.3,0,0,0-1.09-.45h-1.61v3.19Z"/><path class="cls-1" d="M183.95,37.34h-2.73l-0.65,2h-0.67l2.41-7.24h0.59l2.38,7.24h-0.67Zm-2.56-.52h2.4L182.6,33.1h0Z"/><path class="cls-1" d="M187.19,32.14l2.1,6.36h0l2.1-6.36h0.84v7.24H191.6V36.2l0.07-3h0l-2.14,6.15h-0.43l-2.13-6.15h0l0.07,3v3.18h-0.64V32.14h0.83Z"/><path class="cls-1" d="M198,32.14h0.65v7.24H198v-6h0l-3.36,6H194V32.14h0.65v6h0Z"/><path class="cls-1" d="M204.73,37.28a2.26,2.26,0,0,1-.6,1.65,2.24,2.24,0,0,1-1.61.55,2.1,2.1,0,0,1-1.68-.69,3,3,0,0,1-.6-2v-2a3,3,0,0,1,.6-2,2.09,2.09,0,0,1,1.68-.7,2.25,2.25,0,0,1,1.62.54,2.29,2.29,0,0,1,.59,1.67h-0.65a1.94,1.94,0,0,0-.41-1.28,1.51,1.51,0,0,0-1.15-.4,1.42,1.42,0,0,0-1.2.55,2.69,2.69,0,0,0-.41,1.64v2a2.73,2.73,0,0,0,.41,1.65,1.42,1.42,0,0,0,1.2.55,1.54,1.54,0,0,0,1.15-.38,1.94,1.94,0,0,0,.41-1.3h0.65Z"/><path class="cls-1" d="M210,32.67h-2v6.71h-0.64V32.67h-2V32.14H210v0.53Z"/><path class="cls-1" d="M215.2,32.14h0.65v7.24H215.2v-6h0l-3.36,6h-0.65V32.14h0.65v6h0Z"/><path class="cls-1" d="M221.5,32.67h-2v6.71h-0.64V32.67h-2V32.14h4.61v0.53Z"/><path class="cls-1" d="M226.32,35.88h-3v3h3.41v0.52H222.7V32.14h4v0.53h-3.38v2.7h3v0.52Z"/><path class="cls-1" d="M10.6,32.84H9.68s0,1.12,0,1.65a2.44,2.44,0,0,1-2.06,2.35,5.45,5.45,0,0,1-2,0,1.41,1.41,0,0,1-1.19-.93A4.26,4.26,0,0,1,4.35,33a1.25,1.25,0,0,1,.75-0.82,3.8,3.8,0,0,1,2.07-.25c0.52,0.07.61,0.2,0.66,0.83A2,2,0,0,1,6.54,33c-1.13.07-1.34,0.28-1.36,1.39,0,0.11,0,.21,0,0.32a1.06,1.06,0,0,0,.95,1.17,3.85,3.85,0,0,0,2-.11,0.84,0.84,0,0,0,.62-0.66,5.31,5.31,0,0,0-.23-3.26,1.28,1.28,0,0,0-.36-0.59,0.77,0.77,0,0,1-.3-0.77c0-1,0-2,0-2.94A0.71,0.71,0,0,0,7.72,27c-0.46-.32-1.48-0.59-1.48-1v4.82A5.39,5.39,0,0,1,5,31.23a2,2,0,0,0-1.28,1A4.81,4.81,0,0,0,4,36.91,1.39,1.39,0,0,0,5,37.65a13.91,13.91,0,0,0,2.16.12,3.29,3.29,0,0,0,3-1.71A6.84,6.84,0,0,0,10.6,32.84ZM7.15,35.08H7c-0.66,0-1-.26-0.92-0.79a0.57,0.57,0,0,1,.62-0.63,3,3,0,0,1,.5,0c0.61,0.05.7,0.13,0.69,0.58A0.67,0.67,0,0,1,7.15,35.08Z"/><path class="cls-1" d="M60.14,28.38l13-7.74L36.45,0,0,20.58a0.49,0.49,0,0,0,.08.14l12.47,7.39a2.52,2.52,0,0,0,.29.13H12.9L13,28.18c0-.18,0-0.39,0-0.6,0-1.09,0-2.17,0-3.26a0.91,0.91,0,0,1,.55-1c1.93-1,3.82-2.06,5.76-3A52.53,52.53,0,0,1,29.7,16.27a27,27,0,0,1,9.37-.82,32.75,32.75,0,0,1,8.59,2.11A84.67,84.67,0,0,1,59.58,23.5a1,1,0,0,1,.56,1C60.11,25.75,60.14,27,60.14,28.38Z"/><path class="cls-1" d="M57.4,37.77c0-.24,0-0.49,0-0.73q0-5.46,0-10.93a2.6,2.6,0,0,0-.09-1.24,2.68,2.68,0,0,0-1.07-.65,74.1,74.1,0,0,0-10.31-4.6,28.8,28.8,0,0,0-9.64-1.69,28.67,28.67,0,0,0-8.4,1.45,65,65,0,0,0-9.51,4c-0.91.46-1.81,0.94-2.7,1.39v13H57.4Z"/><path class="cls-1" d="M60.14,28.38c0-1.39,0-2.62,0-3.86a1,1,0,0,0-.56-1,84.67,84.67,0,0,0-11.93-5.94,32.75,32.75,0,0,0-8.59-2.11,27,27,0,0,0-9.37.82,52.53,52.53,0,0,0-10.38,4.06c-1.94,1-3.84,2-5.76,3a0.91,0.91,0,0,0-.55,1c0,1.09,0,2.17,0,3.26,0,0.21,0,.42,0,0.6l-0.11.06H12.84a2.52,2.52,0,0,1-.29-0.13L0.08,20.72A0.49,0.49,0,0,1,0,20.58L36.45,0l36.7,20.63Z"/><path class="cls-1" d="M57.4,37.77H15.7v-13c0.88-.46,1.79-0.93,2.7-1.39a65,65,0,0,1,9.51-4,28.67,28.67,0,0,1,8.4-1.45,28.8,28.8,0,0,1,9.64,1.69,74.1,74.1,0,0,1,10.31,4.6,2.68,2.68,0,0,1,1.07.65,2.6,2.6,0,0,1,.09,1.24q0,5.46,0,10.93C57.42,37.28,57.4,37.53,57.4,37.77Z"/></svg>