<svg xmlns="http://www.w3.org/2000/svg" xmlns:xlink="http://www.w3.org/1999/xlink" viewBox="0 0 356.18 289.15"><defs><style>.cls-1{fill:#464b4c;}.cls-2{isolation:isolate;}.cls-3{fill:url(#radial-gradient);}.cls-4{fill:url(#radial-gradient-2);}.cls-5{fill:url(#radial-gradient-3);}.cls-6{fill:#f5f5f5;}.cls-7{fill:#b05033;}.cls-8{fill:#e6e7e8;}.cls-11,.cls-8{mix-blend-mode:multiply;}.cls-9{fill:#efa734;}.cls-10{fill:#843c26;}.cls-12{fill:#281d12;}.cls-13{fill:#ffdcb8;}.cls-14{fill:#725c2b;}.cls-15{fill:#da9089;}.cls-16{fill:#753427;}.cls-17{fill:#190f08;}.cls-18{fill:#3a2b12;}.cls-19{fill:#fff;}.cls-20{clip-path:url(#clip-path);}.cls-21{fill:#a3a3a3;}.cls-22{fill:#676b6b;}.cls-23{fill:#141414;}.cls-24{fill:#bababa;}.cls-25{fill:#232728;}.cls-26,.cls-28{fill:#1f2323;}.cls-27{fill:#313535;}.cls-28{stroke:#657272;stroke-miterlimit:10;stroke-width:0.67px;}.cls-29{fill:#295d60;}</style><radialGradient id="radial-gradient" cx="37.57" cy="49.36" r="31.14" gradientUnits="userSpaceOnUse"><stop offset="0" stop-color="#fcfff5"/><stop offset="1" stop-color="#f4f7ed"/></radialGradient><radialGradient id="radial-gradient-2" cx="326.22" cy="95.5" r="25.29" xlink:href="#radial-gradient"/><radialGradient id="radial-gradient-3" cx="265.78" cy="257.05" r="21" xlink:href="#radial-gradient"/><clipPath id="clip-path"><path class="cls-1" d="M173,66S158.35,64.26,144.8,82s-16.12,55.72-6.7,67.67c0,0,37.76-8.37,40.21-17.73,0,0-13.2-19.06-4.7-33.84,10-17.32,5.62-21.27,6.49-25.55C178.11,67.84,180.42,67.47,173,66Z"/></clipPath></defs><title>Nakov_rocket</title><g class="cls-2"><g id="Layer_1" data-name="Layer 1"><path class="cls-3" d="M59.85,45.29a14.33,14.33,0,0,0-2.4.22c0-.27,0-0.54,0-0.81a19.86,19.86,0,0,0-39.25-4.32l-0.49,0a16.77,16.77,0,0,0,0,33.53h42.1A14.3,14.3,0,1,0,59.85,45.29Z"/><path class="cls-4" d="M345.95,94.57a10.26,10.26,0,0,0-1.62.14,16.68,16.68,0,1,0-33.19-3.32A12,12,0,1,0,308.27,115h37.67A10.24,10.24,0,0,0,345.95,94.57Z"/><path class="cls-5" d="M282.15,256.28a8.52,8.52,0,0,0-1.35.12,13.85,13.85,0,1,0-27.56-2.76,10,10,0,1,0-2.37,19.64h31.28A8.5,8.5,0,0,0,282.15,256.28Z"/><path class="cls-6" d="M108.46,210.08L121,237.32a8.49,8.49,0,0,0,5.69,4.72c26.63,6.43,57.51,3.7,86.73-9.78,36.4-16.8,61.8-46.39,71.06-78.07a12.19,12.19,0,0,0-6.72-14.56c-30.12-13.51-69.11-13.38-105.51,3.41-29.22,13.48-51.33,35.21-63.72,59.64A8.49,8.49,0,0,0,108.46,210.08Z"/><path class="cls-7" d="M132.57,244A29.72,29.72,0,0,1,122,281.19a4.05,4.05,0,0,0-1.49,5.08l0.25,0.54a4,4,0,0,0,4.55,2.24,79.76,79.76,0,0,0,55-46.09,128.53,128.53,0,0,1-48.1.26C132.32,243.47,132.45,243.72,132.57,244Z"/><path class="cls-7" d="M110.88,197a29.72,29.72,0,0,0-35.16-16.12,4.05,4.05,0,0,1-4.83-2.16l-0.25-.54a4,4,0,0,1,1.25-4.92,79.76,79.76,0,0,1,70.73-11.92,128.53,128.53,0,0,0-31.41,36.43C111.1,197.52,111,197.26,110.88,197Z"/><path class="cls-7" d="M277.87,139.66A114.65,114.65,0,0,0,234.19,130l29.36,63.63a114.65,114.65,0,0,0,21-39.51A12.13,12.13,0,0,0,277.87,139.66Z"/><path class="cls-8" d="M239.52,136.11a1.67,1.67,0,0,1,.82-2.21,1.67,1.67,0,0,1,1.28,0,1.72,1.72,0,0,1,1,2.14A1.67,1.67,0,0,1,239.52,136.11Z"/><path class="cls-8" d="M244.18,142.24a1.67,1.67,0,0,1,2.21.82h0a1.67,1.67,0,0,1-.82,2.21h0a1.67,1.67,0,0,1-2.21-.82h0A1.67,1.67,0,0,1,244.18,142.24Z"/><path class="cls-8" d="M259.57,175.59a1.67,1.67,0,0,1,2.21.82h0a1.67,1.67,0,0,1-.82,2.21h0a1.67,1.67,0,0,1-2.21-.82h0A1.67,1.67,0,0,1,259.57,175.59Zm-3.85-8.34a1.67,1.67,0,0,1,2.21.82h0a1.67,1.67,0,0,1-.82,2.21h0a1.67,1.67,0,0,1-2.21-.82h0A1.67,1.67,0,0,1,255.73,167.25Zm-3.85-8.34a1.67,1.67,0,0,1,2.21.82h0a1.67,1.67,0,0,1-.82,2.21h0a1.67,1.67,0,0,1-2.21-.82h0A1.67,1.67,0,0,1,251.88,158.91ZM248,150.58a1.67,1.67,0,0,1,2.21.82h0a1.67,1.67,0,0,1-.82,2.21h0a1.67,1.67,0,0,1-2.21-.82h0A1.67,1.67,0,0,1,248,150.58Z"/><path class="cls-8" d="M262.61,186.14a1.67,1.67,0,0,1,2.09-2.27,1.73,1.73,0,0,1,1,2.15A1.67,1.67,0,0,1,262.61,186.14Z"/><path class="cls-8" d="M232.86,130l29.86,64.7,0.83-1L234.19,130Z"/><path class="cls-8" d="M138.63,160.23a138,138,0,0,0-29.79,33.08,30,30,0,0,1,2,3.7c0.12,0.26.22,0.51,0.33,0.77a128.53,128.53,0,0,1,31.41-36.43Q140.64,160.73,138.63,160.23Z"/><path class="cls-8" d="M180.3,243a128.53,128.53,0,0,1-48.1.26c0.12,0.25.25,0.5,0.37,0.75a30,30,0,0,1,1.5,4,138,138,0,0,0,44.48-1.2Q179.47,244.87,180.3,243Z"/><path class="cls-7" d="M101.76,256.59c-24.1,11.12-64.19,2.73-64.19,2.73s19.63-36,43.73-47.07c12.25-5.65,23.12,1.37,28.77,13.62S114,250.94,101.76,256.59Z"/><path class="cls-9" d="M101.56,251.39c-9.83,4.54-27.46,3-32-6.83s5.73-24.24,15.57-28.78S103,217.21,107.51,227,111.39,246.85,101.56,251.39Z"/><path class="cls-6" d="M103.2,241.81c-5.82,2.69-16.41,1.85-19.09-4s3.55-14.42,9.37-17.1,9.08,1.53,11.77,7.35S109,239.13,103.2,241.81Z"/><path class="cls-7" d="M108.57,202.69a8.49,8.49,0,0,0-.11,7.39L121,237.32a8.49,8.49,0,0,0,5.69,4.72q2.71,0.65,5.47,1.18l-21-45.44Q109.82,200.21,108.57,202.69Z"/><path class="cls-10" d="M112.93,201.51l-4.8,2.22a8.32,8.32,0,0,0-.3,1.11l5.46-2.52Z"/><path class="cls-10" d="M114.84,205.64L108,208.8a8.64,8.64,0,0,0,.29.84l6.92-3.2Z"/><rect class="cls-10" x="109.63" y="211.33" width="7.66" height="0.88" transform="translate(-78.34 67.09) rotate(-24.79)"/><rect class="cls-10" x="111.54" y="215.46" width="7.66" height="0.88" transform="translate(-79.9 68.27) rotate(-24.79)"/><rect class="cls-10" x="113.45" y="219.6" width="7.66" height="0.88" transform="translate(-81.45 69.45) rotate(-24.79)"/><rect class="cls-10" x="115.35" y="223.73" width="7.66" height="0.88" transform="translate(-83.01 70.63) rotate(-24.79)"/><rect class="cls-10" x="117.26" y="227.86" width="7.66" height="0.88" transform="translate(-84.57 71.81) rotate(-24.79)"/><rect class="cls-10" x="119.16" y="231.99" width="7.66" height="0.88" transform="translate(-86.12 72.99) rotate(-24.79)"/><path class="cls-10" d="M128.2,234.55l-6.93,3.2a8.64,8.64,0,0,0,.46.76l6.85-3.16Z"/><path class="cls-10" d="M130.1,238.68l-5.47,2.52a8.32,8.32,0,0,0,1,.49l4.8-2.22Z"/><g class="cls-11"><path class="cls-6" d="M283.89,145.65c0.46,1,0,2.43-1.43,4.07-15.66,17.83-45.22,38.39-81.62,55.19-29.22,13.48-57.41,22-79.67,25.07-2.11.29-3.56-.09-4-1h0l3.85,8.35a8.49,8.49,0,0,0,5.69,4.72c26.63,6.43,57.51,3.7,86.73-9.78,36.4-16.8,61.8-46.39,71.06-78.07A12.17,12.17,0,0,0,283.89,145.65Z"/></g><path class="cls-12" d="M173.95,207.15s2.61,6.09,4.34,7.92,10.93,2.72,12.51,3.44-0.87,8.4-.87,8.4-18.56-6.28-21.15-8.12l-1.71-3.11-2.22-1.16s-4.48-4.83-3.67-6.7,8.88-4.87,8.88-4.87A20.2,20.2,0,0,1,173.95,207.15Z"/><path class="cls-1" d="M155.51,146.61s26.2,16.3,31.69,29.93S181.44,202.65,175,209c0,0-5.9-2.7-6.93-5.31,0,0,19-15.19,12.64-23.56S146.17,161,144,159.84,135.79,122.51,155.51,146.61Z"/><path class="cls-1" d="M175.36,133.82s10.76,3.38,9.85,5.52c0,0-11.14,6.66-20.7,11-1.75-.24-18,14.14-23.71,3.89C132.38,139.1,175.36,133.82,175.36,133.82Z"/><path class="cls-13" d="M219.42,65.21A61.49,61.49,0,0,0,216.66,57C202.89,75.74,192,55.6,192,55.6c1.79-.54,14.92-6.2,20.52-8.62l-1.28-3c5.56-.45,5.91-7.82,2-5.46-2.87,1.74-4.59-.63-5.3-2l-0.37-.83h0c-3.16-7.07-5.71-12.54-5.71-12.54C177.63,7.26,171.36,39.42,173.08,43s10,23.57,16.39,28.68S221,73,219.42,65.21Z"/><path class="cls-14" d="M181.93,56.41s6.17-15.45-8-22c0,0,23.21-4.24,19.41-6.38a11.18,11.18,0,0,0-6-1.6s19.41,0.3,20.19-5.9c0.86-6.84-3.63,1.33-3.63,1.33S205,0.29,195.79,0s-2.16,9.38-2.16,9.38a20.4,20.4,0,0,0-15.86-7.87c-10.71-.28-6.41,8.24,0,9.39,0,0-15.94,4-20,14.43,0,0-8.7-.44-8.68,4.22s5.59,0.45,5.59.45-5,4.7-2.51,5.84,3.14-2.43,3.14-2.43,0.93,17.53,14,19.37c0,0-2.47,5.75-.6,6.68s3.05-2.24,3.05-2.24-1.11,7.09,2.23,4.87S181.07,59.42,181.93,56.41Z"/><path class="cls-15" d="M195.3,60.08c3.53,3.83,9.62,7.85,16.88,1.83C207.4,55.45,199.48,58,195.3,60.08Z"/><path class="cls-16" d="M212.53,47c-5.6,2.42-18.73,8.08-20.52,8.62a24.88,24.88,0,0,0,3.28,4.48c4.19-2,12.1-4.63,16.88,1.83A27.33,27.33,0,0,0,216.66,57C215.49,54,214.05,50.52,212.53,47Z"/><ellipse class="cls-17" cx="200.63" cy="38.81" rx="1.78" ry="3.66" transform="translate(0.25 78.92) rotate(-22.27)"/><path class="cls-13" d="M185.69,54.29s-3.75-6.45-9.17-3.75-1.67,7.28.89,9.33S187.42,62.51,185.69,54.29Z"/><path class="cls-18" d="M199.24,29.37s-5.77-3.55-7.33,3C191.91,32.35,191.91,22.92,199.24,29.37Z"/><path class="cls-19" d="M182.21,71.43a7.65,7.65,0,0,1,2.46,4.43L183.27,74l-2,1.5S179.4,72.39,182.21,71.43Z"/><path class="cls-13" d="M197.78,70.65s-11.28,0-15.53,1.59c0,0-5.28,1.73-6-2.75s7.06-5,12.57-8.39Z"/><path class="cls-1" d="M173,66S158.35,64.26,144.8,82s-16.12,55.72-6.7,67.67c0,0,37.76-8.37,40.21-17.73,0,0-13.2-19.06-4.7-33.84,10-17.32,5.62-21.27,6.49-25.55C178.11,67.84,180.42,67.47,173,66Z"/><g class="cls-20"><path class="cls-21" d="M174.57,64.23s1.25,21.45,1,23.68a7.09,7.09,0,0,1-1.83,3.85s-3.11,8.45-1.05,12.24,11.23-21.38,9.86-26.68S175,64.2,175,64.2"/></g><path class="cls-22" d="M150.78,146.68s-11.68,8.2-23.39-1.48c0,0,7.86,2.8,6.63-4.81C134,140.4,137,149.83,150.78,146.68Z"/><path class="cls-23" d="M180.63,74.36s-2.71-8.05-15-9.89S140.05,78.64,125.72,66L110,69.83s4.35,14.31,6.57,16.61c0,0,13.91,6.05,22.87-1.39,16.49-13.7,27.89-21.2,41.69-7.45Z"/><path class="cls-24" d="M183.49,72.08l-2.21,3.46s-3.9-.89-3.8-2.72S183.49,72.08,183.49,72.08Z"/><path class="cls-23" d="M180.63,74.36s1.17,0.64.87,3.27-1.21.07-1.21,0.07Z"/><path class="cls-22" d="M175.68,89.23A28.21,28.21,0,0,1,165.13,85s-1.76,26.83,7.8,36.06C172.93,121,169.26,108,175.68,89.23Z"/><path class="cls-22" d="M175.87,69.6s-5,4.13-10.15,2.89c0,0,6,12.92,10,16.74C175.68,89.23,180.4,78,175.87,69.6Z"/><path class="cls-19" d="M172.09,64.37l5.48-.14,5.92,7.85-6.64,4S171.74,68.73,172.09,64.37Z"/><path class="cls-25" d="M154.26,145.33s21.22-8.46,23.32-11.61l-1.1-1.84,2,0.34a28.61,28.61,0,0,0-3.5-1.85l0.42,3.45S161,143.44,154.26,145.33Z"/><path class="cls-1" d="M173.26,75.48c3.28,2.89-11.21,14.94-6.85,33.33,3.74,15.8,22,16.25,36.1,15.4,0,0,1.55,5.92,4.46,8.66,0,0-36.73,4-45.85-18.09C150.35,88.73,167.83,70.69,173.26,75.48Z"/><path class="cls-25" d="M168.22,75.17s-21,13-5.43,42.89C162.79,118.06,148.49,94.28,168.22,75.17Z"/><path class="cls-13" d="M205.58,121.59s6.2-3.3,8.1-.31c0,0,1.92,7.59.87,10.27a35.79,35.79,0,0,0-5.12,0c-2.42.2-5.28,3.55-6.7-1.21S203.69,122.41,205.58,121.59Z"/><path class="cls-26" d="M73.74,116l-12.82,5a2.6,2.6,0,0,0-1.48,3.36l1.18,3A2.6,2.6,0,0,0,64,128.9l0.11,0a2.57,2.57,0,0,1-.85-1.13l-1-2.68a2.15,2.15,0,0,1,1-2.86l9.66-3.77a2.15,2.15,0,0,1,2.66,1.44l1,2.68a2.57,2.57,0,0,1,.14,1.41l0.11,0a2.6,2.6,0,0,0,1.48-3.36l-1.18-3A2.6,2.6,0,0,0,73.74,116Z"/><path class="cls-27" d="M72.29,116.61l-12.82,5A2.6,2.6,0,0,0,58,125l1.18,3a2.6,2.6,0,0,0,3.36,1.48l0.11,0a2.57,2.57,0,0,1-.85-1.13l-1-2.68a2.15,2.15,0,0,1,1-2.86L71.4,119a2.15,2.15,0,0,1,2.66,1.44l1,2.68a2.57,2.57,0,0,1,.14,1.41l0.11,0a2.6,2.6,0,0,0,1.48-3.36l-1.18-3A2.6,2.6,0,0,0,72.29,116.61Z"/><rect class="cls-26" x="52.85" y="120.51" width="59.84" height="45.66" rx="2.6" ry="2.6" transform="translate(-46.42 39.87) rotate(-21.3)"/><path class="cls-28" d="M114.26,152.77a2.52,2.52,0,0,1-1.33,3.3L65.46,174.59a2.52,2.52,0,0,1-3.21-1.53l-14.7-37.7a2.52,2.52,0,0,1,1.33-3.3l47.47-18.51a2.52,2.52,0,0,1,3.21,1.53Z"/><path class="cls-27" d="M109.51,154.62a2.53,2.53,0,0,1-1.34,3.31L60.28,176.61a2.53,2.53,0,0,1-3.23-1.53l-14.7-37.7a2.53,2.53,0,0,1,1.34-3.31L91.58,115.4a2.53,2.53,0,0,1,3.23,1.53Z"/><path class="cls-1" d="M104.64,154.18a2.26,2.26,0,0,1-1.2,3L61.29,173.57a2.26,2.26,0,0,1-2.88-1.36L45.29,138.58a2.26,2.26,0,0,1,1.2-3l42.15-16.44a2.26,2.26,0,0,1,2.88,1.36Z"/><path class="cls-29" d="M100,108.71a5.72,5.72,0,0,1,3.05.81,1.26,1.26,0,0,0,1.26-2.17A8.24,8.24,0,0,0,100,106.2c-1.61.06-1.62,2.57,0,2.51h0Z"/><path class="cls-29" d="M101.91,104.91a7.68,7.68,0,0,1,2.17.93,1.26,1.26,0,0,0,1.26-2.17,10.09,10.09,0,0,0-2.79-1.19c-1.57-.36-2.22,2.07-0.64,2.43h0Z"/><path class="cls-29" d="M50.6,181.83a8.17,8.17,0,0,0,6.47,3.38c1.61,0.13,1.6-2.38,0-2.51a5.45,5.45,0,0,1-4.28-2.1c-0.93-1.31-3.12-.08-2.19,1.24h0Z"/><path class="cls-29" d="M49.12,187a26.9,26.9,0,0,0,4.53,2.2c1.53,0.54,2.16-1.89.64-2.43a23.36,23.36,0,0,1-3.91-1.94A1.26,1.26,0,0,0,49.12,187h0Z"/></g></g></svg>